<?xml version="1.0" encoding="UTF-8" standalone="no"?>
<!-- Created with Inkscape (http://www.inkscape.org/) -->

<svg
   width="210mm"
   height="297mm"
   viewBox="0 0 210 297"
   version="1.1"
   id="svg1"
   xml:space="preserve"
   inkscape:version="1.4 (86a8ad7, 2024-10-11)"
   sodipodi:docname="rompecabezas.svg"
   xmlns:inkscape="http://www.inkscape.org/namespaces/inkscape"
   xmlns:sodipodi="http://sodipodi.sourceforge.net/DTD/sodipodi-0.dtd"
   xmlns="http://www.w3.org/2000/svg"
   xmlns:svg="http://www.w3.org/2000/svg"><sodipodi:namedview
     id="namedview1"
     pagecolor="#ffffff"
     bordercolor="#000000"
     borderopacity="0.25"
     inkscape:showpageshadow="2"
     inkscape:pageopacity="0.0"
     inkscape:pagecheckerboard="0"
     inkscape:deskcolor="#d1d1d1"
     inkscape:document-units="mm"
     inkscape:zoom="0.60132576"
     inkscape:cx="396.62362"
     inkscape:cy="611.14961"
     inkscape:window-width="1600"
     inkscape:window-height="877"
     inkscape:window-x="-8"
     inkscape:window-y="-8"
     inkscape:window-maximized="1"
     inkscape:current-layer="layer1" /><defs
     id="defs1" /><g
     inkscape:label="Capa 1"
     inkscape:groupmode="layer"
     id="layer1"><g
       id="layer-oc1"
       inkscape:label="0"
       transform="matrix(0.26458333,0,0,0.26458333,-3.4455,-9.367785)"><path
         id="path1"
         d="M 1105,1808 H 3467"
         style="fill:none;stroke:#000000;stroke-width:6;stroke-linecap:round;stroke-linejoin:round;stroke-miterlimit:10;stroke-dasharray:none;stroke-opacity:1"
         transform="matrix(0.16,0,0,-0.16,18.666667,1058.6667)" /><path
         id="path2"
         d="M 1105,4170 V 3764"
         style="fill:none;stroke:#000000;stroke-width:6;stroke-linecap:round;stroke-linejoin:round;stroke-miterlimit:10;stroke-dasharray:none;stroke-opacity:1"
         transform="matrix(0.16,0,0,-0.16,18.666667,1058.6667)" /><path
         id="path3"
         d="M 1105,3395 V 1808 h 1181 v 406"
         style="fill:none;stroke:#000000;stroke-width:6;stroke-linecap:round;stroke-linejoin:round;stroke-miterlimit:10;stroke-dasharray:none;stroke-opacity:1"
         transform="matrix(0.16,0,0,-0.16,18.666667,1058.6667)" /><path
         id="path4"
         d="m 2286,2583 v 812"
         style="fill:none;stroke:#000000;stroke-width:6;stroke-linecap:round;stroke-linejoin:round;stroke-miterlimit:10;stroke-dasharray:none;stroke-opacity:1"
         transform="matrix(0.16,0,0,-0.16,18.666667,1058.6667)" /><path
         id="path5"
         d="m 2286,3764 v 406"
         style="fill:none;stroke:#000000;stroke-width:6;stroke-linecap:round;stroke-linejoin:round;stroke-miterlimit:10;stroke-dasharray:none;stroke-opacity:1"
         transform="matrix(0.16,0,0,-0.16,18.666667,1058.6667)" /><path
         id="path6"
         d="M 3467,4170 V 3764"
         style="fill:none;stroke:#000000;stroke-width:6;stroke-linecap:round;stroke-linejoin:round;stroke-miterlimit:10;stroke-dasharray:none;stroke-opacity:1"
         transform="matrix(0.16,0,0,-0.16,18.666667,1058.6667)" /><path
         id="path7"
         d="M 3467,3395 V 2583"
         style="fill:none;stroke:#000000;stroke-width:6;stroke-linecap:round;stroke-linejoin:round;stroke-miterlimit:10;stroke-dasharray:none;stroke-opacity:1"
         transform="matrix(0.16,0,0,-0.16,18.666667,1058.6667)" /><path
         id="path8"
         d="M 3467,2214 V 1808"
         style="fill:none;stroke:#000000;stroke-width:6;stroke-linecap:round;stroke-linejoin:round;stroke-miterlimit:10;stroke-dasharray:none;stroke-opacity:1"
         transform="matrix(0.16,0,0,-0.16,18.666667,1058.6667)" /><path
         id="path9"
         d="M 3467,4170 H 3061"
         style="fill:none;stroke:#000000;stroke-width:6;stroke-linecap:round;stroke-linejoin:round;stroke-miterlimit:10;stroke-dasharray:none;stroke-opacity:1"
         transform="matrix(0.16,0,0,-0.16,18.666667,1058.6667)" /><path
         id="path10"
         d="M 2692,4170 H 1880"
         style="fill:none;stroke:#000000;stroke-width:6;stroke-linecap:round;stroke-linejoin:round;stroke-miterlimit:10;stroke-dasharray:none;stroke-opacity:1"
         transform="matrix(0.16,0,0,-0.16,18.666667,1058.6667)" /><path
         id="path11"
         d="m 1511,4170 h -406 v -406 -775 h 406"
         style="fill:none;stroke:#000000;stroke-width:6;stroke-linecap:round;stroke-linejoin:round;stroke-miterlimit:10;stroke-dasharray:none;stroke-opacity:1"
         transform="matrix(0.16,0,0,-0.16,18.666667,1058.6667)" /><path
         id="path12"
         d="m 1880,2989 h 812"
         style="fill:none;stroke:#000000;stroke-width:6;stroke-linecap:round;stroke-linejoin:round;stroke-miterlimit:10;stroke-dasharray:none;stroke-opacity:1"
         transform="matrix(0.16,0,0,-0.16,18.666667,1058.6667)" /><path
         id="path13"
         d="m 3061,2989 h 406"
         style="fill:none;stroke:#000000;stroke-width:6;stroke-linecap:round;stroke-linejoin:round;stroke-miterlimit:10;stroke-dasharray:none;stroke-opacity:1"
         transform="matrix(0.16,0,0,-0.16,18.666667,1058.6667)" /><path
         id="path14"
         d="M 2286,2989 V 2583"
         style="fill:none;stroke:#000000;stroke-width:6;stroke-linecap:round;stroke-linejoin:round;stroke-miterlimit:10;stroke-dasharray:none;stroke-opacity:1"
         transform="matrix(0.16,0,0,-0.16,18.666667,1058.6667)" /><path
         id="path15"
         d="M 2286,2214 V 1808"
         style="fill:none;stroke:#000000;stroke-width:6;stroke-linecap:round;stroke-linejoin:round;stroke-miterlimit:10;stroke-dasharray:none;stroke-opacity:1"
         transform="matrix(0.16,0,0,-0.16,18.666667,1058.6667)" /><path
         id="path16"
         d="m 2287.3147,2584.116 c -96.7007,77.4243 -236.7605,67.1111 -321.0771,-23.6429 -84.3168,-90.7536 -84.3168,-231.1926 0,-321.9462 84.3166,-90.7539 224.3764,-101.0672 321.0771,-23.6429"
         style="fill:none;stroke:#000000;stroke-width:6;stroke-linecap:round;stroke-linejoin:round;stroke-miterlimit:10;stroke-dasharray:none;stroke-opacity:1"
         transform="matrix(0.16,0,0,-0.16,18.666667,1058.6667)" /><path
         id="path17"
         d="m 3467,1808 v 406"
         style="fill:none;stroke:#000000;stroke-width:6;stroke-linecap:round;stroke-linejoin:round;stroke-miterlimit:10;stroke-dasharray:none;stroke-opacity:1"
         transform="matrix(0.16,0,0,-0.16,18.666667,1058.6667)" /><path
         id="path18"
         d="m 3467,2583 v 406"
         style="fill:none;stroke:#000000;stroke-width:6;stroke-linecap:round;stroke-linejoin:round;stroke-miterlimit:10;stroke-dasharray:none;stroke-opacity:1"
         transform="matrix(0.16,0,0,-0.16,18.666667,1058.6667)" /><path
         id="path19"
         d="m 3468.3147,2584.116 c -96.7007,77.4243 -236.7605,67.1111 -321.0771,-23.6429 -84.3167,-90.7536 -84.3167,-231.1926 0,-321.9462 84.3166,-90.7539 224.3764,-101.0672 321.0771,-23.6429"
         style="fill:none;stroke:#000000;stroke-width:6;stroke-linecap:round;stroke-linejoin:round;stroke-miterlimit:10;stroke-dasharray:none;stroke-opacity:1"
         transform="matrix(0.16,0,0,-0.16,18.666667,1058.6667)" /><path
         id="path20"
         d="M 3467,2989 H 3061"
         style="fill:none;stroke:#000000;stroke-width:6;stroke-linecap:round;stroke-linejoin:round;stroke-miterlimit:10;stroke-dasharray:none;stroke-opacity:1"
         transform="matrix(0.16,0,0,-0.16,18.666667,1058.6667)" /><path
         id="path21"
         d="M 2692,2989 H 2286"
         style="fill:none;stroke:#000000;stroke-width:6;stroke-linecap:round;stroke-linejoin:round;stroke-miterlimit:10;stroke-dasharray:none;stroke-opacity:1"
         transform="matrix(0.16,0,0,-0.16,18.666667,1058.6667)" /><path
         id="path22"
         d="m 3062.116,2989.6853 c 77.4243,96.7007 67.1111,236.7605 -23.6429,321.0771 -90.7536,84.3167 -231.1926,84.3167 -321.9462,0 -90.7539,-84.3166 -101.0672,-224.3764 -23.6429,-321.0771"
         style="fill:none;stroke:#000000;stroke-width:6;stroke-linecap:round;stroke-linejoin:round;stroke-miterlimit:10;stroke-dasharray:none;stroke-opacity:1"
         transform="matrix(0.16,0,0,-0.16,18.666667,1058.6667)" /><path
         id="path23"
         d="m 3467,2989 v 406"
         style="fill:none;stroke:#000000;stroke-width:6;stroke-linecap:round;stroke-linejoin:round;stroke-miterlimit:10;stroke-dasharray:none;stroke-opacity:1"
         transform="matrix(0.16,0,0,-0.16,18.666667,1058.6667)" /><path
         id="path24"
         d="m 3467,3764 v 406"
         style="fill:none;stroke:#000000;stroke-width:6;stroke-linecap:round;stroke-linejoin:round;stroke-miterlimit:10;stroke-dasharray:none;stroke-opacity:1"
         transform="matrix(0.16,0,0,-0.16,18.666667,1058.6667)" /><path
         id="path25"
         d="m 3467.6853,3395.884 c 96.7007,-77.4243 236.7605,-67.111 321.0771,23.6429 84.3167,90.7536 84.3167,231.1926 0,321.9462 -84.3166,90.754 -224.3764,101.0672 -321.0771,23.6429"
         style="fill:none;stroke:#000000;stroke-width:6;stroke-linecap:round;stroke-linejoin:round;stroke-miterlimit:10;stroke-dasharray:none;stroke-opacity:1"
         transform="matrix(0.16,0,0,-0.16,18.666667,1058.6667)" /><path
         id="path26"
         d="M 2286,4170 V 3764"
         style="fill:none;stroke:#000000;stroke-width:6;stroke-linecap:round;stroke-linejoin:round;stroke-miterlimit:10;stroke-dasharray:none;stroke-opacity:1"
         transform="matrix(0.16,0,0,-0.16,18.666667,1058.6667)" /><path
         id="path27"
         d="M 2286,3395 V 2989"
         style="fill:none;stroke:#000000;stroke-width:6;stroke-linecap:round;stroke-linejoin:round;stroke-miterlimit:10;stroke-dasharray:none;stroke-opacity:1"
         transform="matrix(0.16,0,0,-0.16,18.666667,1058.6667)" /><path
         id="path28"
         d="m 2287.3147,3765.116 c -96.7007,77.4243 -236.7605,67.1111 -321.0771,-23.6429 -84.3168,-90.7536 -84.3168,-231.1926 0,-321.9462 84.3166,-90.7539 224.3764,-101.0672 321.0771,-23.6429"
         style="fill:none;stroke:#000000;stroke-width:6;stroke-linecap:round;stroke-linejoin:round;stroke-miterlimit:10;stroke-dasharray:none;stroke-opacity:1"
         transform="matrix(0.16,0,0,-0.16,18.666667,1058.6667)" /><path
         id="path29"
         d="m 2692.884,4171.3144 c -77.4243,-96.7004 -67.111,-236.7602 23.6429,-321.0768 90.7536,-84.3167 231.1926,-84.3167 321.9462,0 90.754,84.3166 101.0672,224.3764 23.6429,321.0768"
         style="fill:none;stroke:#000000;stroke-width:6;stroke-linecap:round;stroke-linejoin:round;stroke-miterlimit:10;stroke-dasharray:none;stroke-opacity:1"
         transform="matrix(0.16,0,0,-0.16,18.666667,1058.6667)" /><path
         id="path30"
         d="m 1881.116,4170.6855 c 77.4244,96.7007 67.1109,236.7603 -23.6427,321.0767 -90.7538,84.3169 -231.1928,84.3169 -321.9466,0 -90.7536,-84.3164 -101.0671,-224.376 -23.6427,-321.0767"
         style="fill:none;stroke:#000000;stroke-width:6;stroke-linecap:round;stroke-linejoin:round;stroke-miterlimit:10;stroke-dasharray:none;stroke-opacity:1"
         transform="matrix(0.16,0,0,-0.16,18.666667,1058.6667)" /><path
         id="path31"
         d="m 1511.884,2990.3147 c -77.4244,-96.7007 -67.1109,-236.7605 23.6427,-321.0771 90.7538,-84.3167 231.1928,-84.3167 321.9466,0 90.7536,84.3166 101.0671,224.3764 23.6427,321.0771"
         style="fill:none;stroke:#000000;stroke-width:6;stroke-linecap:round;stroke-linejoin:round;stroke-miterlimit:10;stroke-dasharray:none;stroke-opacity:1"
         transform="matrix(0.16,0,0,-0.16,18.666667,1058.6667)" /></g></g></svg>
