<?xml version="1.0" encoding="UTF-8" standalone="no"?>
<!-- Created with Inkscape (http://www.inkscape.org/) -->

<svg
   version="1.1"
   id="svg1"
   width="900"
   height="900"
   viewBox="0 0 900 900"
   xmlns="http://www.w3.org/2000/svg"
   xmlns:svg="http://www.w3.org/2000/svg">
  <defs
     id="defs1">
    <clipPath
       clipPathUnits="userSpaceOnUse"
       id="clipPath2">
      <rect
         style="fill:#800000"
         id="rect2"
         width="223.91833"
         height="220.79073"
         x="882.10785"
         y="220.19675" />
    </clipPath>
  </defs>
  <g
     id="g1">
    <path
       style="fill:#000000"
       d="M 18.014272,444.72958 V 12.829787 H 455.75054 893.48681 V 444.72958 876.62936 H 455.75054 18.014272 Z m 485.525988,362.4682 c 3.71496,-2.35729 4.70851,-15.27548 3.89099,-50.59108 l -1.09785,-47.42547 -50.52672,50.65066 -50.52672,50.65067 46.63573,-0.0596 c 25.64965,-0.0328 48.88071,-1.4841 51.62457,-3.22519 z m -54.64458,-59.89672 59.38321,-59.2905 V 575.14535 462.28013 L 370.14878,600.36914 c -75.97156,75.94896 -138.13011,139.09921 -138.13011,140.33389 0,3.638 54.59166,33.5856 77.81978,42.68995 17.05798,6.68594 68.774,21.96941 77.77415,22.98434 1.04492,0.11784 28.62231,-26.46648 61.28308,-59.07626 z m 123.58453,44.69401 c 32.51461,-10.09428 66.91066,-26.05311 92.14678,-42.75358 l 14.85542,-9.83086 v -84.14754 -84.14755 l -79.76527,-79.69409 -79.76528,-79.69409 v 197.50623 197.50624 l 10.70022,-2.54049 c 5.88512,-1.39727 24.70778,-6.88919 41.82813,-12.20427 z m -315.17011,-94.3512 34.85665,-35.0189 h -71.06633 c -68.18944,0 -70.90883,0.29427 -67.17597,7.26917 4.30267,8.03961 61.78273,62.76863 65.9238,62.76863 1.43286,0 18.29069,-15.7585 37.46185,-35.0189 z m 471.14415,-0.97275 c 15.05714,-15.51531 29.39367,-30.93724 31.85895,-34.27093 3.72164,-5.03262 -1.43616,-11.95233 -30.39225,-40.77426 l -34.87458,-34.713 v 68.98393 c 0,37.94117 1.35703,68.98394 3.01562,68.98394 1.6586,0 15.33511,-12.69436 30.39226,-28.20968 z M 384.70438,570.25046 c 42.28546,-42.2458 76.88306,-77.70244 76.88356,-78.79253 5.1e-4,-1.09009 -87.54675,-1.5123 -194.54945,-0.93824 -150.97518,0.80996 -194.540027,2.11721 -194.504189,5.83648 0.19474,20.21022 26.146494,88.50873 46.913709,123.46513 l 16.18282,27.23971 h 86.09545 86.09546 z m 403.0617,52.04193 c 17.23978,-28.44552 34.48895,-70.48386 43.70242,-106.50819 l 7.66794,-29.98134 -57.29458,-57.39025 -57.29457,-57.39026 -113.9549,-1.08353 -113.9549,-1.08353 137.12103,137.15737 c 75.41657,75.43655 138.07354,137.15736 139.23771,137.15736 1.16417,0 7.8106,-9.39493 14.76985,-20.87763 z M 121.06935,425.20178 C 75.35846,379.3742 70.301447,375.38745 68.012237,383.37365 c -3.418963,11.92748 -3.869728,52.26666 -0.831723,74.43132 l 2.474373,18.05252 h 50.970593 50.97058 z m 153.72964,-87.57252 -138.10955,-138.22822 -7.24918,8.85284 c -18.46669,22.55188 -49.996979,98.60137 -55.1629,133.05019 l -2.798806,18.66378 57.848226,57.94482 57.84822,57.94482 h 112.86677 112.86679 z m 567.65753,83.75439 c -0.49892,-56.18008 3.32149,-52.52836 -54.95496,-52.52836 h -49.56591 l 49.40264,49.50274 c 33.49003,33.5579 50.376,47.97071 52.42457,44.74638 1.66206,-2.616 2.87421,-21.39035 2.69366,-41.72076 z M 385.88964,40.892107 c -2.861,-2.861 -51.02171,10.10092 -77.50668,20.86005 -13.10977,5.32565 -36.53029,16.94493 -52.04561,25.82061 l -28.20967,16.137603 v 83.90034 83.90034 l 78.79253,78.86394 78.79253,78.86394 1.00942,-193.25244 c 0.55518,-106.28884 0.18055,-194.081313 -0.83252,-195.094383 z m 281.91981,56.90565 C 644.83392,78.823367 572.45947,48.447027 534.12771,41.690087 l -15.00657,-2.64529 -59.89497,59.80146 -59.89497,59.801463 V 271.52668 384.40564 L 538.43406,245.11843 677.53692,105.83121 Z M 829.28171,321.19068 c -11.07068,-41.10324 -21.01422,-64.48681 -42.192,-99.22023 l -16.01389,-26.26417 h -83.76944 -83.76944 l -79.69409,79.76527 -79.69409,79.76528 H 641.30021 838.45166 Z M 215.6253,150.34015 l -1.11608,-37.98836 -34.04615,34.06202 c -18.72538,18.73411 -34.04615,36.14103 -34.04615,38.68203 0,2.541 15.32077,20.01991 34.04615,38.84202 l 34.04615,34.22202 1.11608,-34.91569 c 0.61385,-19.20363 0.61385,-52.01045 0,-72.90404 z M 750.17733,169.4421 C 739.40076,155.9677 723.5829,140.4019 698.77644,118.8603 l -9.88839,-8.58694 -36.72663,36.87997 -36.72663,36.87998 h 73.20615 73.20616 z M 491.81504,35.590827 c -11.88898,-3.40793 -47.03097,-3.79068 -72.05615,-0.7848 l -20.42769,2.45365 v 50.95749 50.957483 l 50.65571,-50.526713 c 45.82758,-45.71089 49.81433,-50.7679 41.82813,-53.05711 z"
       id="path2" />
  </g>
</svg>
