<?xml version="1.0" encoding="UTF-8" standalone="no"?>
<!-- Created with Inkscape (http://www.inkscape.org/) -->

<svg
   version="1.1"
   id="svg1"
   width="800"
   height="800"
   viewBox="0 0 800 800"
   xmlns="http://www.w3.org/2000/svg"
   xmlns:svg="http://www.w3.org/2000/svg">
  <defs
     id="defs1">
    <clipPath
       clipPathUnits="userSpaceOnUse"
       id="clipPath2">
      <rect
         style="fill:#800000"
         id="rect2"
         width="223.91833"
         height="220.79073"
         x="882.10785"
         y="220.19675" />
    </clipPath>
  </defs>
  <g
     id="g17"
     transform="matrix(1.0308785,0,0,1.0308785,-53.41065,-25.49919)">
    <path
       style="fill:#800000;stroke-width:1.1236"
       d="m 55.617978,464.84097 c 0,-0.48915 -0.831556,-6.93578 -1.847902,-14.32584 -3.304939,-24.03089 -2.219285,-74.42547 1.687517,-78.33227 0.618634,-0.61864 2.526405,-0.26023 4.806562,0.90299 2.079434,1.06083 24.258317,22.33247 49.286405,47.27033 l 45.50562,45.34156 -49.7191,0.0163 c -27.345507,0.009 -49.719102,-0.38392 -49.719102,-0.87307 z"
       id="path1" />
    <path
       style="fill:#800000;stroke-width:1.1236"
       d="m 115.3726,408.06926 -57.652921,-57.66108 2.273103,-13.9853 C 66.887842,294.0009 97.851537,219.91761 118.7888,195.74835 l 3.68311,-4.25165 137.07692,137.11682 137.07693,137.11682 H 284.82564 173.02553 Z"
       id="path3" />
    <path
       style="fill:#800000;stroke-width:1.1236"
       d="M 292.41573,340.16949 214.04494,261.79178 V 178.4616 95.131426 l 12.64045,-7.237817 c 39.18322,-22.435981 61.50443,-33.076069 87.92135,-41.910383 20.24299,-6.769636 41.57343,-12.487433 50.49765,-13.5363 l 5.97645,-0.702415 0.7768,40.869317 c 0.42724,22.478125 0.36101,109.508732 -0.14716,193.401352 l -0.92396,152.53202 z"
       id="path4" />
    <path
       style="fill:#800000;stroke-width:1.1236"
       d="m 172.70226,220.21899 c -24.05653,-24.58687 -39.55619,-41.96182 -39.55619,-44.34206 0,-2.6939 31.47837,-37.02434 57.06929,-62.23998 l 8.96645,-8.83496 0.86956,9.39676 c 1.13706,12.28747 0.91148,120.12637 -0.26621,127.26386 l -0.90876,5.50756 z"
       id="path5" />
    <path
       style="fill:#800000;stroke-width:1.1236"
       d="m 385.9793,78.460062 -0.0242,-49.629825 3.08988,-0.615458 c 10.97045,-2.185143 30.08295,-3.464699 51.9663,-3.479073 26.14617,-0.01717 34.17376,0.680337 37.72628,3.278002 1.98306,1.450053 1.92837,1.733233 -1.239,6.41458 -1.8225,2.693655 -23.15445,24.869465 -47.40432,49.279577 l -44.09067,44.382025 z"
       id="path6" />
    <path
       style="fill:#800000;stroke-width:1.1236"
       d="M 385.95506,261.23027 V 149.43025 l 59.2736,-59.265686 c 36.03593,-36.031119 60.0977,-59.265688 61.37568,-59.265688 1.15614,0 8.23302,1.245792 15.7264,2.768427 43.76904,8.893754 112.35208,39.032404 136.33346,59.911396 l 3.60802,3.141265 L 524.11364,234.87512 385.95506,373.03028 Z"
       id="path7" />
    <path
       style="fill:#800000;stroke-width:1.1236"
       d="m 638.20225,138.76404 c 19.76804,-19.77528 36.32661,-35.95505 36.79683,-35.95505 1.35201,0 30.65064,26.38415 42.4672,38.24279 5.89859,5.91959 14.89815,15.91638 19.99903,22.2151 l 9.27434,11.45222 H 674.5 602.26036 Z"
       id="path8" />
    <path
       style="fill:#800000;stroke-width:1.1236"
       d="m 510.67416,266.29213 79.2075,-79.21348 h 83.27895 83.27894 l 12.36311,20.50562 c 26.39341,43.77643 33.29574,59.99646 47.47961,111.57399 3.71329,13.50284 6.75144,24.95489 6.75144,25.44899 0,0.4941 -88.10259,0.89837 -195.78353,0.89837 H 431.46665 Z"
       id="path9" />
    <path
       style="fill:#800000;stroke-width:1.1236"
       d="M 621.37116,497.12142 C 546.28049,422.17226 485.03208,360.6608 485.26358,360.42931 c 0.2315,-0.2315 50.91718,0.121 112.63485,0.78333 l 112.21393,1.20424 57.12465,57.09735 57.12464,57.09735 -6.21605,23.49197 c -9.82106,37.11607 -20.21968,64.81047 -35.39942,94.27847 -8.27257,16.05931 -19.91299,34.91611 -23.27776,37.70863 -1.27216,1.05579 -27.38373,-24.46434 -138.09726,-134.96923 z"
       id="path10" />
    <path
       style="fill:#800000;stroke-width:1.1236"
       d="M 815.84579,448.16762 C 807.3142,441.47 774.57349,410.20406 746.62921,382.06883 L 724.7191,360.009 l 44.38202,0.33258 c 37.9572,0.28443 44.95873,0.59503 48.36584,2.14558 9.15256,4.16524 10.50223,11.65974 9.75021,54.14132 -0.5585,31.55019 -1.04918,36.74294 -3.47181,36.7416 -0.7004,-3.9e-4 -4.2552,-2.3415 -7.89957,-5.20246 z"
       id="path11" />
    <path
       style="fill:#800000;stroke-width:1.1236"
       d="M 506.17978,600.31928 V 404.57115 l 6.42133,6.14139 c 3.53173,3.37777 39.1778,38.73054 79.21348,78.56172 l 72.79215,72.42031 v 84.07705 84.07703 l -13.20225,8.61563 c -23.77593,15.51589 -53.86241,30.00121 -83.42696,40.16643 -18.02227,6.19662 -56.42722,17.43671 -59.57746,17.43671 -2.20283,0 -2.22029,-1.53934 -2.22029,-195.74814 z"
       id="path12" />
    <path
       style="fill:#800000;stroke-width:1.1236"
       d="m 683.21742,711.51747 c -0.41013,-2.00876 -1.0243,-32.47253 -1.36483,-67.69725 l -0.61914,-64.04494 11.06867,10.59845 c 32.76284,31.37101 54.32709,55.00207 54.32709,59.53403 0,2.89501 -40.71452,46.05878 -56.33305,59.72186 l -6.33306,5.54016 z"
       id="path13" />
    <path
       style="fill:#800000;stroke-width:1.1236"
       d="m 441.57303,751.2188 49.43821,-49.55378 0.87408,18.26861 c 0.48074,10.04774 0.73355,30.42667 0.5618,45.28651 -0.35595,30.79539 -0.72888,32.28404 -8.39919,33.52739 -2.34996,0.38093 -23.99175,0.9924 -48.09287,1.35882 l -43.82023,0.66622 z"
       id="path14" />
    <path
       style="fill:#800000;stroke-width:1.1236"
       d="m 343.82022,788.79906 c -32.87648,-9.55824 -47.91419,-14.86445 -64.68609,-22.82521 -16.94214,-8.04154 -44.59464,-23.16961 -53.89036,-29.48221 l -6.8053,-4.62139 8.16946,-9.06221 c 4.4932,-4.98422 66.43049,-67.52019 137.63841,-138.96884 l 129.46894,-129.90662 0.0525,111.90614 0.0525,111.90613 -59.5046,59.16128 c -50.46399,50.17283 -59.98105,59.15507 -62.64045,59.12041 -1.72472,-0.0225 -14.25944,-3.27484 -27.85495,-7.22748 z"
       id="path15" />
    <path
       style="fill:#800000;stroke-width:1.1236"
       d="m 193.07098,712.68575 c -16.41767,-14.13195 -51.53085,-49.13693 -52.56861,-52.40662 -0.50332,-1.58582 -0.32464,-3.15349 0.44744,-3.92557 1.5491,-1.5491 65.02427,-3.15302 107.3648,-2.71294 l 28.08988,0.29196 -29.83475,29.77529 c -16.40911,16.3764 -32.4306,31.94454 -35.6033,34.59586 l -5.76855,4.82059 z"
       id="path16" />
    <path
       style="fill:#800000;stroke-width:1.1236"
       d="M 112.17801,621.06742 C 98.786988,598.50799 87.790027,576.01171 77.712435,550.5618 65.117647,518.75497 56.90574,489.83583 59.680661,487.06091 c 2.261442,-2.26144 31.574186,-3.44797 110.544059,-4.47462 91.31459,-1.18715 251.67639,-1.29037 266.29213,-0.1714 l 9.55057,0.73118 -25.80789,26.40449 c -14.19433,14.52247 -48.57427,49.28371 -76.39987,77.24719 l -50.59197,50.8427 h -85.62605 -85.62606 z"
       id="path17" />
  </g>
</svg>
