<?xml version="1.0" encoding="UTF-8" standalone="no"?>
<!-- Created with Inkscape (http://www.inkscape.org/) -->

<svg
   width="210mm"
   height="297mm"
   viewBox="0 0 210 297"
   version="1.1"
   id="svg1"
   xml:space="preserve"
   inkscape:version="1.3.2 (091e20e, 2023-11-25)"
   sodipodi:docname="christmass_hat_white.svg"
   xmlns:inkscape="http://www.inkscape.org/namespaces/inkscape"
   xmlns:sodipodi="http://sodipodi.sourceforge.net/DTD/sodipodi-0.dtd"
   xmlns="http://www.w3.org/2000/svg"
   xmlns:svg="http://www.w3.org/2000/svg"><sodipodi:namedview
     id="namedview1"
     pagecolor="#ffffff"
     bordercolor="#000000"
     borderopacity="0.25"
     inkscape:showpageshadow="2"
     inkscape:pageopacity="0.0"
     inkscape:pagecheckerboard="0"
     inkscape:deskcolor="#d1d1d1"
     inkscape:document-units="mm"
     inkscape:zoom="0.44015368"
     inkscape:cx="277.17592"
     inkscape:cy="577.07117"
     inkscape:window-width="1376"
     inkscape:window-height="836"
     inkscape:window-x="1984"
     inkscape:window-y="207"
     inkscape:window-maximized="1"
     inkscape:current-layer="layer1" /><defs
     id="defs1" /><g
     inkscape:label="Capa 1"
     inkscape:groupmode="layer"
     id="layer1"><path
       id="path2"
       style="fill:#ffffff;stroke-width:0.215934"
       d="M 127.24394,63.767082 A 22.008331,22.134605 0 0 1 105.23561,85.901688 22.008331,22.134605 0 0 1 83.22728,63.767082 22.008331,22.134605 0 0 1 105.23561,41.632477 22.008331,22.134605 0 0 1 127.24394,63.767082 Z" /><path
       style="fill:#ffffff;stroke-width:3.21193"
       d="M 267.87229,955.97657 C 221.34119,920.58584 195.2896,883.76969 193.55397,850.94982 l -0.83808,-15.84764 19.27159,-9.77753 c 10.59937,-5.37764 43.84286,-18.85993 73.87442,-29.96064 105.64133,-39.04871 162.91132,-72.55907 222.47475,-130.17654 19.90788,-19.25748 49.54096,-52.27969 65.85131,-73.3827 16.31032,-21.103 34.66204,-43.5348 40.78157,-49.84844 l 11.12642,-11.47935 28.53394,30.25921 c 51.16584,54.25948 85.72031,105.07739 85.72031,126.06555 0,14.66244 -16.75674,27.58818 -62.98116,48.58212 -120.20017,54.59179 -212.94395,109.61886 -337.88635,200.47594 -27.03856,19.66219 -49.58757,35.74947 -50.10892,35.74947 -0.52135,0 -10.19701,-7.03471 -21.50148,-15.6327 z"
       id="path6"
       transform="scale(0.26458333)" /></g></svg>
