<?xml version="1.0" encoding="UTF-8" standalone="no"?>
<!-- Created with Inkscape (http://www.inkscape.org/) -->

<svg
   width="210mm"
   height="297mm"
   viewBox="0 0 210 297"
   version="1.1"
   id="svg1"
   xml:space="preserve"
   inkscape:version="1.3.2 (091e20e, 2023-11-25)"
   sodipodi:docname="gorrito_navidad.svg"
   xmlns:inkscape="http://www.inkscape.org/namespaces/inkscape"
   xmlns:sodipodi="http://sodipodi.sourceforge.net/DTD/sodipodi-0.dtd"
   xmlns="http://www.w3.org/2000/svg"
   xmlns:svg="http://www.w3.org/2000/svg"><sodipodi:namedview
     id="namedview1"
     pagecolor="#ffffff"
     bordercolor="#000000"
     borderopacity="0.25"
     inkscape:showpageshadow="2"
     inkscape:pageopacity="0.0"
     inkscape:pagecheckerboard="0"
     inkscape:deskcolor="#d1d1d1"
     inkscape:document-units="mm"
     inkscape:zoom="0.44015368"
     inkscape:cx="277.17591"
     inkscape:cy="722.47493"
     inkscape:window-width="1376"
     inkscape:window-height="836"
     inkscape:window-x="1984"
     inkscape:window-y="207"
     inkscape:window-maximized="1"
     inkscape:current-layer="layer1" /><defs
     id="defs1" /><g
     inkscape:label="Capa 1"
     inkscape:groupmode="layer"
     id="layer1"><path
       style="fill:#000000;stroke-width:0.624379"
       d="m 73.122992,268.60731 c -6.40942,-3.88927 -12.593684,-8.60287 -18.158448,-13.84024 -5.716807,-5.38047 -9.006509,-9.49628 -11.663608,-14.59254 -2.832372,-5.43245 -4.080519,-10.37548 -4.078937,-16.1538 9.01e-4,-3.23816 0.845958,-10.44044 1.312157,-11.1831 0.174357,-0.27775 0.729809,-0.68014 1.364684,-0.98861 0.591278,-0.28729 1.037044,-0.6038 0.995591,-0.7069 -0.04128,-0.10268 -0.849578,-1.23886 -1.796212,-2.52485 C 32.643864,197.13219 24.054512,183.28362 18.776131,172.62748 10.810472,156.54619 6.6160467,142.88705 5.3170597,128.79803 5.0282582,125.66564 5.0777749,118.5575 5.4108344,115.3367 7.0713341,99.279063 13.783375,85.433053 25.310985,74.285453 c 12.1166,-11.71718 27.88173,-18.95291 46.863195,-21.50885 1.311303,-0.17657 3.056303,-0.3713 3.877775,-0.43274 l 1.493585,-0.1117 0.783271,-1.46004 c 1.490507,-2.77837 3.228061,-4.97361 5.793381,-7.31943 3.90477,-3.57066 7.977559,-5.764034 13.086734,-7.047778 4.727884,-1.18794 10.307854,-1.269562 14.815264,-0.216714 6.12963,1.431774 11.79051,4.713372 15.71582,9.110442 8.66591,9.70739 9.54927,23.44795 2.17393,33.815 -4.60075,6.46697 -11.39903,10.74645 -19.5359,12.29775 -1.67869,0.32004 -2.41822,0.3668 -5.67672,0.35896 -4.03517,-0.01 -5.34125,-0.18033 -8.60011,-1.12348 -4.188459,-1.21218 -4.268356,-1.22789 -6.35742,-1.24999 -2.008208,-0.0212 -2.016145,-0.0198 -2.426761,0.42831 -1.105605,1.20669 0.06762,3.82354 3.038191,6.77663 4.623354,4.596157 11.38532,8.166447 18.43328,9.732697 2.83009,0.62893 6.06188,1.01627 12.26154,1.46963 6.07636,0.44433 9.28918,0.82567 12.33111,1.46358 8.15319,1.70977 14.68608,4.96662 21.45994,10.69843 1.69071,1.43062 4.90397,4.59671 6.10449,6.01487 l 0.32852,0.38808 0.89774,-1.07496 c 0.49376,-0.59124 1.11466,-1.18054 1.37979,-1.30955 0.56062,-0.27281 1.73672,-0.30861 2.21559,-0.0674 0.30987,0.15605 7.71389,7.63047 12.93676,13.05976 9.72289,10.10716 18.01004,20.08346 22.80321,27.45112 4.54772,6.99039 6.49435,12.16453 6.50982,17.30309 0.0153,5.09193 -1.87191,9.4094 -5.69706,13.03332 -3.43007,3.24961 -7.16665,5.3278 -18.85526,10.4868 -18.0072,7.94783 -32.27356,15.53734 -49.55706,26.36369 -15.38166,9.63504 -29.1066,19.17842 -50.408556,35.05069 -2.763101,2.05881 -5.201242,3.80944 -5.418082,3.89028 -0.99247,0.37002 -1.402617,0.20883 -4.958,-1.9486 z m 6.841631,-13.17484 c 18.87678,-14.10495 37.222937,-26.66891 52.580617,-36.00869 15.63201,-9.50661 28.46437,-16.19648 45.98078,-23.97107 10.13013,-4.49623 12.82001,-5.92517 15.06267,-8.00174 2.58325,-2.39193 3.29567,-4.64496 2.54843,-8.05951 -1.17855,-5.38539 -7.73758,-14.96487 -18.62124,-27.19636 -4.44758,-4.99835 -11.87149,-12.79008 -12.10712,-12.70695 -0.0731,0.0258 -1.00919,1.12861 -2.08019,2.4507 -1.69853,2.09674 -2.00941,2.40459 -2.43367,2.40991 -0.43938,0.005 -0.71968,0.32645 -2.90058,3.32112 -9.79991,13.45659 -16.85758,21.7972 -24.83037,29.34396 -14.25641,13.49461 -29.63995,22.55214 -53.617044,31.56867 -3.782643,1.42245 -13.148922,4.79767 -17.877861,6.44242 -0.750876,0.26117 -1.339031,0.56343 -1.379465,0.70893 -0.04222,0.15194 -1.907664,1.04848 -4.651494,2.23555 -2.519553,1.09004 -4.695956,2.08157 -4.836454,2.20341 -0.401048,0.34778 -0.403301,5.39197 -0.0033,7.50464 1.609439,8.50158 7.201972,15.97723 18.65111,24.93129 1.827028,1.42887 7.045179,5.25028 7.194397,5.26868 0.02298,0.003 1.51738,-1.09739 3.320831,-2.44496 z M 63.829522,206.80772 c 14.285906,-5.06276 20.849138,-7.6229 28.439959,-11.09366 20.960269,-9.5837 35.549209,-21.1951 50.801499,-40.43315 3.5104,-4.42776 12.97554,-17.20863 12.97554,-17.52101 0,-0.10456 -2.73436,-3.57116 -3.11201,-3.94538 -0.11594,-0.11488 -0.83486,-0.89631 -1.5976,-1.7365 -5.16402,-5.68837 -11.01996,-9.61165 -17.19419,-11.5195 -3.62102,-1.1189 -6.62885,-1.56631 -14.11448,-2.09951 -8.01394,-0.57084 -11.3739,-1.03385 -15.83782,-2.18251 -9.831688,-2.52992 -19.007363,-8.13854 -24.455207,-14.94823 -1.610201,-2.012717 -3.218092,-4.964777 -3.760773,-6.904707 -0.534011,-1.90894 -0.535337,-4.69744 -0.0032,-6.45639 0.809712,-2.67582 2.159293,-4.77529 4.502123,-7.00374 1.716293,-1.63251 4.196787,-3.45516 5.0365,-3.70078 0.948734,-0.27751 5.047384,-0.36998 6.781289,-0.15299 1.211968,0.15167 1.679354,0.29228 2.36239,0.71066 1.537623,0.94186 2.072168,1.21508 3.338673,1.70654 6.885715,2.67196 14.734005,1.29914 20.125735,-3.52037 3.52134,-3.14763 5.66934,-8.40962 5.34443,-13.09233 -0.54012,-7.7842 -5.96892,-14.02712 -13.99281,-16.09121 -1.73061,-0.44519 -5.61858,-0.60958 -7.54574,-0.31905 -4.731242,0.71325 -9.080497,3.17222 -11.950766,6.75668 -0.880759,1.0999 -1.868678,2.80888 -2.776959,4.8038 -0.46897,1.03002 -4.263097,3.60558 -6.572399,4.46152 -0.547579,0.20296 -1.644932,0.40241 -2.724791,0.49524 -13.737985,1.18104 -25.895475,5.2126 -35.936478,11.91695 -6.723214,4.48915 -12.698402,10.52836 -16.847344,17.02799 -12.249523,19.189767 -11.523445,43.284487 2.186805,72.568577 1.525956,3.25933 5.647444,11.05848 7.706492,14.58311 5.256168,8.99737 12.793372,20.16125 19.343024,28.65032 1.059642,1.37341 1.528593,1.86164 1.72078,1.79152 0.145298,-0.053 3.636104,-1.29137 7.757346,-2.75189 z"
       id="path1" /><ellipse
       style="fill:#000000;stroke-width:0.340654"
       id="path3"
       cx="103.29926"
       cy="65.113472"
       rx="26.354738"
       ry="22.935041" /><path
       id="path2"
       style="fill:#ffffff;stroke-width:0.215934"
       d="M 127.24394,63.767082 A 22.008331,22.134605 0 0 1 105.23561,85.901688 22.008331,22.134605 0 0 1 83.22728,63.767082 22.008331,22.134605 0 0 1 105.23561,41.632477 22.008331,22.134605 0 0 1 127.24394,63.767082 Z" /><path
       style="fill:#ff0000;stroke-width:1.49199"
       d="m 197.61913,773.25976 -21.4802,-29.90712 -10.48374,-15.43526 -10.18272,-15.55389 -9.78413,-15.52065 -9.28796,-15.33553 -8.69418,-14.99855 -8.00284,-14.50969 -13.48514,-25.79655 -6.13401,-12.3613 -5.711409,-12.06554 -5.276113,-11.81645 -4.828139,-11.61404 -8.261636,-22.80747 -6.317569,-22.55781 -4.272055,-22.6815 -2.12509,-23.17851 -0.225731,-11.89231 0.349053,-12.15657 0.16703,-10.21848 -0.07466,-10.13567 0.424772,-10.09296 1.665334,-10.09031 2.857707,-10.85266 3.412432,-11.71006 3.824105,-11.6027 4.092726,-10.53057 4.313184,-9.33613 4.603351,-8.86317 4.927263,-8.69116 5.284923,-8.82011 13.341185,-16.00557 14.28578,-15.05899 12.71907,-13.21034 14.72958,-11.2023 15.99474,-9.62024 8.23888,-4.34997 8.27567,-4.1142 11.31041,-5.21928 11.46329,-4.73804 11.63575,-4.25859 11.82779,-3.78094 12.0394,-3.30506 12.27059,-2.83099 25.31305,-4.2469 1.95824,-0.25036 1.95823,-0.25037 1.95824,-0.25036 1.95823,-0.25036 -0.0569,0.87694 -0.093,2.12599 -0.0125,2.61776 0.1845,2.35226 2.06808,11.78278 2.77048,11.55481 4.16089,11.32111 6.23936,11.08163 1.10215,1.6089 1.10216,1.60891 1.10215,1.6089 1.10215,1.60891 -0.99724,0.9013 -2.36241,2.23638 -2.78357,2.87022 -2.26074,2.80278 -5.42822,8.54854 -4.84475,8.97381 -3.70557,9.37963 -2.01064,9.76599 -0.0856,5.37769 0.75852,5.39233 1.56134,5.2167 2.32282,4.85078 12.58887,18.65303 7.14587,8.3662 7.89255,7.81439 8.7735,7.32888 9.78875,6.90966 10.93827,6.55674 12.22208,6.27013 9.5106,4.25736 9.47982,3.647 9.74777,3.10401 10.31444,2.62841 11.17983,2.22019 12.34394,1.87936 13.80678,1.60591 15.56832,1.39985 13.98546,1.21186 11.86112,1.27136 18.88143,3.05343 14.9808,4.28803 14.14463,6.18703 14.41181,8.36953 14.11236,10.5913 13.86848,12.85962 13.68015,15.17451 3.62014,4.5395 2.01794,3.1223 0.66344,2.19641 -0.4434,1.76181 -8.664,12.30033 -7.97372,10.74203 -9.26106,12.2977 -18.96273,24.74567 -7.99095,10.18962 -5.85687,7.22856 -20.22534,23.05324 -10.1433,10.74335 -10.20852,10.25557 -10.30735,9.79358 -10.43981,9.3574 -10.60587,8.94702 -10.80554,8.56242 -11.03883,8.20363 -11.30573,7.87064 -11.60624,7.56345 -11.94037,7.28206 -12.3081,7.02646 -12.70946,6.79665 -13.14442,6.59266 -13.61299,6.41446 -5.53148,2.50559 -5.53191,2.45842 -11.26363,4.85255 -11.8609,4.89544 -12.85523,5.09271 -14.24659,5.44435 -16.03499,5.95035 -18.22044,6.61073 -20.80292,7.42547 -5.12361,1.81747 -5.1236,1.81747 -5.12361,1.81748 -5.12361,1.81747 -3.38454,-4.53232 -3.38453,-4.53232 -3.38454,-4.53232 z"
       id="path4"
       transform="scale(0.26458333)"
       sodipodi:nodetypes="ccccccccccccccccccccccccccccccccccccccccccccccccccccccccccccccccccccccccccccccccccccccccccccccccccccccccccccccccccccccccccccccccccccccccccc" /><path
       style="fill:#ffffff;stroke-width:3.21193"
       d="M 267.87229,955.97657 C 221.34119,920.58584 195.2896,883.76969 193.55397,850.94982 l -0.83808,-15.84764 19.27159,-9.77753 c 10.59937,-5.37764 43.84286,-18.85993 73.87442,-29.96064 105.64133,-39.04871 162.91132,-72.55907 222.47475,-130.17654 19.90788,-19.25748 49.54096,-52.27969 65.85131,-73.3827 16.31032,-21.103 34.66204,-43.5348 40.78157,-49.84844 l 11.12642,-11.47935 28.53394,30.25921 c 51.16584,54.25948 85.72031,105.07739 85.72031,126.06555 0,14.66244 -16.75674,27.58818 -62.98116,48.58212 -120.20017,54.59179 -212.94395,109.61886 -337.88635,200.47594 -27.03856,19.66219 -49.58757,35.74947 -50.10892,35.74947 -0.52135,0 -10.19701,-7.03471 -21.50148,-15.6327 z"
       id="path6"
       transform="scale(0.26458333)" /></g></svg>
