<?xml version="1.0" encoding="UTF-8" standalone="no"?>
<!-- Created with Inkscape (http://www.inkscape.org/) -->

<svg
   width="210mm"
   height="297mm"
   viewBox="0 0 210 297"
   version="1.1"
   id="svg1"
   xml:space="preserve"
   inkscape:version="1.3.2 (091e20e, 2023-11-25)"
   sodipodi:docname="christmas_hat_external.svg"
   xmlns:inkscape="http://www.inkscape.org/namespaces/inkscape"
   xmlns:sodipodi="http://sodipodi.sourceforge.net/DTD/sodipodi-0.dtd"
   xmlns="http://www.w3.org/2000/svg"
   xmlns:svg="http://www.w3.org/2000/svg"><sodipodi:namedview
     id="namedview1"
     pagecolor="#ffffff"
     bordercolor="#000000"
     borderopacity="0.25"
     inkscape:showpageshadow="2"
     inkscape:pageopacity="0.0"
     inkscape:pagecheckerboard="0"
     inkscape:deskcolor="#d1d1d1"
     inkscape:document-units="mm"
     inkscape:zoom="0.47382667"
     inkscape:cx="571.93911"
     inkscape:cy="618.36959"
     inkscape:window-width="1376"
     inkscape:window-height="836"
     inkscape:window-x="1984"
     inkscape:window-y="207"
     inkscape:window-maximized="1"
     inkscape:current-layer="layer1" /><defs
     id="defs1" /><g
     inkscape:label="Capa 1"
     inkscape:groupmode="layer"
     id="layer1"><path
       id="path1"
       style="fill:#800000;stroke-width:0.624379;stroke:#000000;stroke-opacity:1"
       d="M 104.69904 35.456234 C 102.14963 35.493526 99.57299 35.811045 97.209054 36.405013 C 92.099889 37.688755 88.026759 39.881991 84.121997 43.452645 C 81.556683 45.798461 79.819574 47.993731 78.329069 50.772095 L 77.545654 52.231954 L 76.052205 52.344092 C 75.230735 52.405532 73.485707 52.600054 72.174406 52.776624 C 53.192979 55.332558 37.427691 62.568232 25.311117 74.285388 C 13.783529 85.432966 7.0715357 99.279023 5.4110392 115.33663 C 5.0779805 118.55743 5.0281872 125.66545 5.3169881 128.79782 C 6.6159725 142.88682 10.810472 156.54644 18.776115 172.62771 C 24.054486 183.28383 32.643928 197.13218 41.098267 208.61724 C 42.044899 209.90323 42.853259 211.03947 42.894539 211.14215 C 42.935992 211.24525 42.490011 211.56179 41.898735 211.84908 C 41.26386 212.15755 40.708317 212.5599 40.53396 212.83765 C 40.067761 213.58031 39.222796 220.78279 39.221895 224.02095 C 39.220313 229.79927 40.46835 234.74204 43.300716 240.17449 C 45.957809 245.27073 49.247807 249.38641 54.964604 254.76688 C 60.529356 260.00423 66.713779 264.71811 73.123185 268.60738 C 76.678562 270.76479 77.088554 270.92612 78.081022 270.5561 C 78.297862 270.47526 80.736201 268.7247 83.499296 266.66589 C 104.80121 250.79366 118.52595 241.24982 133.90759 231.6148 C 151.19105 220.78847 165.45761 213.19885 183.46477 205.25104 C 195.15336 200.09204 198.88988 198.01395 202.31995 194.76434 C 206.1451 191.14042 208.03206 186.82294 208.01676 181.73103 C 208.00129 176.59247 206.0548 171.41858 201.50708 164.42821 C 196.71391 157.06055 188.42669 147.08431 178.70382 136.97717 C 173.48097 131.54788 166.07701 124.07303 165.76714 123.91698 C 165.28827 123.67577 164.11239 123.71187 163.55177 123.98468 C 163.28664 124.11369 162.66577 124.70292 162.17201 125.29416 L 161.27388 126.36903 L 160.94573 125.98094 C 159.74521 124.56278 156.5319 121.39694 154.84119 119.96632 C 148.06735 114.23453 141.53418 110.97752 133.38101 109.26775 C 130.33908 108.62984 127.12632 108.2486 121.04998 107.80427 C 114.85032 107.35091 111.6188 106.96352 108.78871 106.33459 C 101.74077 104.76836 94.978554 101.19801 90.355208 96.601855 C 87.384643 93.648771 86.211548 91.031696 87.317151 89.825008 C 87.727765 89.3769 87.735672 89.375927 89.743876 89.397127 C 91.832936 89.419227 91.91266 89.434487 96.101111 90.646663 C 99.359965 91.589811 100.66595 91.760109 104.7011 91.770109 C 107.9596 91.777949 108.69959 91.731513 110.37828 91.411475 C 118.51513 89.860177 125.3133 85.580475 129.91403 79.113517 C 137.28937 68.746489 136.4059 55.005897 127.74001 45.298527 C 123.8147 40.901465 118.15378 37.619744 112.02417 36.187972 C 109.77047 35.66155 107.24843 35.418942 104.69904 35.456234 z " /></g></svg>
