<?xml version="1.0" encoding="UTF-8" standalone="no"?>
<!-- Created with Inkscape (http://www.inkscape.org/) -->

<svg
   version="1.1"
   id="svg1"
   width="225"
   height="225"
   viewBox="0 0 225 225"
   sodipodi:docname="crown.svg"
   inkscape:version="1.3.2 (091e20e, 2023-11-25)"
   xmlns:inkscape="http://www.inkscape.org/namespaces/inkscape"
   xmlns:sodipodi="http://sodipodi.sourceforge.net/DTD/sodipodi-0.dtd"
   xmlns="http://www.w3.org/2000/svg"
   xmlns:svg="http://www.w3.org/2000/svg">
  <defs
     id="defs1" />
  <sodipodi:namedview
     id="namedview1"
     pagecolor="#ffffff"
     bordercolor="#000000"
     borderopacity="0.25"
     inkscape:showpageshadow="2"
     inkscape:pageopacity="0.0"
     inkscape:pagecheckerboard="0"
     inkscape:deskcolor="#d1d1d1"
     showgrid="false"
     inkscape:zoom="3.2177778"
     inkscape:cx="112.5"
     inkscape:cy="112.5"
     inkscape:window-width="1584"
     inkscape:window-height="966"
     inkscape:window-x="64"
     inkscape:window-y="27"
     inkscape:window-maximized="1"
     inkscape:current-layer="g1" />
  <g
     inkscape:groupmode="layer"
     inkscape:label="Image"
     id="g1">
    <path
       style="fill:#000000;stroke-width:3.30149"
       d="m 47.396754,144.57207 -1.2923,-1.65684 v -7.68556 -7.68559 l 1.005845,-1.84113 1.005874,-1.84119 h 54.806707 54.80674 l 0.88648,1.3695 c 1.88507,2.91206 1.55883,17.11865 -0.45232,19.69709 l -1.01441,1.30054 H 102.91922 48.689019 Z m -0.875212,-33.83057 -1.198287,-1.69871 -4.739191,-24.260405 -4.739195,-24.2604 -0.847084,-0.36065 c -1.684066,-0.717 -4.36886,-5.2392 -4.780453,-8.05204 l -0.42078,-2.87568 0.907729,-3.05779 c 0.507025,-1.70792 1.866848,-3.88644 3.08035,-4.93488 l 2.17256,-1.8771 h 2.888128 2.888131 l 2.508576,3.21618 2.508578,3.21619 v 4.12779 4.1278 l -1.384445,2.25647 -1.384417,2.25646 6.39207,8.27098 c 3.51562,4.54903 7.555123,9.05116 8.976631,10.00472 l 2.584595,1.73377 3.893878,0.0695 3.893874,0.0695 3.213733,-2.0962 3.213766,-2.09618 10.128133,-17.20007 10.12816,-17.20008 -1.31682,-3.816631 -1.31682,-3.816636 0.71865,-3.075345 c 2.561765,-10.962292 13.942218,-10.870442 16.252858,0.131164 l 0.67469,3.212356 -1.23766,3.587084 -1.23762,3.587078 10.20059,17.41904 10.20061,17.41904 3.12537,1.95793 3.12534,1.95795 3.87689,-0.0227 3.87687,-0.0227 2.58458,-1.76592 c 1.42154,-0.97125 5.46101,-5.48785 8.97666,-10.03688 l 6.39204,-8.27097 -1.38442,-2.25647 -1.38442,-2.25647 v -4.12786 -4.1278 l 2.50859,-3.21618 2.50855,-3.21619 2.82213,0.003 c 8.51977,0.009 12.24405,14.17349 5.14118,19.55279 l -1.72451,1.30605 -4.72222,24.30753 -4.7222,24.307565 -1.29662,1.50447 -1.29666,1.50449 -55.01618,0.29523 -55.016202,0.29519 z"
       id="path1-1" />
    <path
       style="fill:#800000;stroke-width:0.310773"
       d="m 46.803045,110.79348 c -0.639321,-0.88988 -1.222314,-1.77898 -1.295541,-1.97575 -0.07323,-0.19678 -2.231679,-11.126086 -4.796558,-24.287343 -3.752214,-19.253866 -4.769469,-23.99028 -5.206173,-24.240332 -2.205135,-1.262626 -4.472835,-5.102608 -5.164011,-8.744412 -0.395971,-2.08637 -0.379402,-2.349323 0.27886,-4.425512 0.867197,-2.735184 2.253391,-4.935049 4.02389,-6.385839 1.344096,-1.101386 1.379678,-1.110534 4.255475,-1.094008 l 2.900046,0.01667 2.408495,3.147278 2.408494,3.147279 v 3.972823 3.972823 l -1.427998,2.352107 c -0.980214,1.614543 -1.3351,2.470696 -1.131742,2.730291 0.162941,0.208001 2.085454,2.685677 4.272251,5.505946 5.424831,6.996298 9.262473,11.290202 11.551051,12.924364 l 1.92033,1.371216 h 4.089925 4.089925 L 73.137325,76.726262 76.29489,74.671449 86.440074,57.425721 96.585256,40.179993 95.267259,36.250217 93.94926,32.320442 94.618784,29.834254 c 1.258157,-4.672022 3.231907,-7.222723 6.273116,-8.106825 4.56241,-1.326329 8.48648,2.169594 9.88203,8.803822 l 0.47226,2.245062 -1.25857,3.58403 -1.25857,3.58403 10.22959,17.461226 10.22959,17.461224 3.07681,1.948606 3.07681,1.948606 4.04561,0.0085 c 4.61418,0.0097 4.94942,-0.122131 8.18143,-3.217792 3.02033,-2.892913 13.72255,-16.137218 13.72255,-16.982046 0,-0.192176 -0.5594,-1.291009 -1.2431,-2.44185 l -1.24309,-2.092435 v -4.120485 -4.120484 l 2.37739,-3.086923 2.37739,-3.086922 h 2.22319 c 3.87997,0 6.27618,1.702769 8.16245,5.800309 1.19296,2.591468 1.36628,6.644441 0.39445,9.223792 -0.65662,1.742719 -2.33841,3.829252 -3.97424,4.930683 -0.65676,0.442199 -1.09926,2.458143 -5.43854,24.776568 l -4.72361,24.2952 -1.24309,1.49451 -1.2431,1.4945 -32.7866,0.19656 c -18.03263,0.10811 -42.726854,0.28188 -54.876049,0.38615 l -22.089445,0.18957 z"
       id="path1" />
    <path
       style="fill:#800000;stroke-width:0.310773"
       d="m 47.585681,144.523 -1.280432,-1.69592 v -7.66715 -7.66714 l 0.955128,-1.66939 0.955128,-1.66939 h 54.800985 54.80099 l 0.64248,1.32719 c 0.96961,2.00293 1.37713,5.69 1.15857,10.4822 -0.22265,4.88185 -0.83042,7.79185 -1.92786,9.23067 l -0.78169,1.02485 H 102.88754 48.866113 Z"
       id="path2" />
  </g>
</svg>
